<svg xmlns="http://www.w3.org/2000/svg" width="38.784" height="31.52" viewBox="0 0 38.784 31.52"><g transform="translate(-3542.982 -3121.261)"><path d="M3581.766,3124.992a15.893,15.893,0,0,1-4.57,1.253,7.982,7.982,0,0,0,3.5-4.4,15.936,15.936,0,0,1-5.053,1.931,7.963,7.963,0,0,0-13.559,7.258,22.589,22.589,0,0,1-16.4-8.315,7.965,7.965,0,0,0,2.462,10.624,7.909,7.909,0,0,1-3.6-1c0,.034,0,.068,0,.1a7.963,7.963,0,0,0,6.384,7.8,7.993,7.993,0,0,1-3.594.137,7.964,7.964,0,0,0,7.433,5.525,16.074,16.074,0,0,1-11.78,3.3,22.513,22.513,0,0,0,12.2,3.575c14.636,0,22.64-12.124,22.64-22.641,0-.344-.008-.688-.023-1.029a16.149,16.149,0,0,0,3.97-4.119Zm0,0"/></g></svg>